<svg width="282" height="573" viewBox="0 0 282 573" fill="none" xmlns="http://www.w3.org/2000/svg">
    <g clip-path="url(#clip0_82_169)">
        <rect width="282" height="573" fill="#469481"/>
        <path d="M292 125C292.112 127.044 292.117 129.238 292 131.557V521.5H-19V359.5C2 322.167 69.3 244.4 170.5 232C264.919 220.431 290.367 163.857 292 131.557V125Z" fill="#E8C026"/>
        <path d="M292 134C292.112 136.044 292.117 138.238 292 140.557V530.5H-19V368.5C2 331.167 69.3 253.4 170.5 241C264.919 229.431 290.367 172.857 292 140.557V134Z" fill="#ED8E43"/>
        <path d="M292 160C292.112 162.044 292.117 164.238 292 166.557V556.5H-19V394.5C2 357.167 69.3 279.4 170.5 267C264.919 255.431 290.367 198.857 292 166.557V160Z" fill="#DD7E3C"/>
        <path d="M292 188C292.112 190.044 292.117 192.238 292 194.557V584.5H-19V422.5C2 385.167 69.3 307.4 170.5 295C264.919 283.431 290.367 226.857 292 194.557V188Z" fill="#E87039"/>
        <path d="M292 229C292.112 231.044 292.117 233.238 292 235.557V625.5H-19V463.5C2 426.167 69.3 348.4 170.5 336C264.919 324.431 290.367 267.857 292 235.557V229Z" fill="#DD523D"/>
        <path d="M292 125C292.112 127.044 292.117 129.238 292 131.557V521.5H-19V359.5C2 322.167 69.3 244.4 170.5 232C264.919 220.431 290.367 163.857 292 131.557V125Z" fill="#F28F43"/>
        <path d="M291 99C291.112 101.044 291.117 103.238 291 105.557V495.5H-20V333.5C1 296.167 68.3 218.4 169.5 206C263.919 194.431 289.367 137.857 291 105.557V99Z" fill="#F28F43" fill-opacity="0.5"/>
        <path d="M282 85C282.112 87.0435 282.117 89.2379 282 91.5575V481.5H-29V319.5C-8 282.167 59.3 204.4 160.5 192C254.919 180.431 280.367 123.857 282 91.5575V85Z" fill="#F28F43" fill-opacity="0.5"/>
        <path d="M292 229C292.112 231.044 292.117 233.238 292 235.557V625.5H-19V463.5C2 426.167 69.3 348.4 170.5 336C264.919 324.431 290.367 267.857 292 235.557V229Z" fill="#DD523D"/>
        <path d="M286 188C286.097 189.78 286.1 191.674 286 193.666V584.5H-29V422.5C-8 385.167 59.3 307.4 160.5 295C255.794 283.324 284.38 225.805 286 193.666V188Z" fill="#DD523D" fill-opacity="0.5"/>
        <path d="M290.914 214C291.026 216.02 291.031 218.19 290.914 220.483V606H-20V445.839C0.994205 408.929 68.2756 332.045 169.448 319.786C263.841 308.348 289.282 252.416 290.914 220.483V214Z" fill="#DD523D" fill-opacity="0.239216"/>
    </g>
    <defs>
        <clipPath id="clip0_82_169">
            <rect width="282" height="573" fill="white"/>
        </clipPath>
    </defs>
</svg>
